<?xml version="1.0" standalone="no"?>
<!DOCTYPE svg PUBLIC "-//W3C//DTD SVG 20010904//EN"
 "http://www.w3.org/TR/2001/REC-SVG-20010904/DTD/svg10.dtd">
<svg version="1.0" xmlns="http://www.w3.org/2000/svg"
 width="512.000000pt" height="512.000000pt" viewBox="0 0 512.000000 512.000000"
 preserveAspectRatio="xMidYMid meet">
<metadata>
Created by potrace 1.11, written by Peter Selinger 2001-2013
</metadata>
<g transform="translate(0.000000,512.000000) scale(0.100000,-0.100000)"
fill="#000000" stroke="none">
<path d="M1505 4972 c-91 -13 -163 -50 -225 -115 -36 -37 -80 -117 -89 -162
-8 -44 -7 -4244 2 -4284 20 -88 110 -196 202 -241 l50 -25 1035 -3 c723 -2
1050 1 1087 8 106 22 212 118 254 228 l21 57 1 2115 c0 1976 -1 2119 -17 2170
-33 106 -126 200 -231 237 -46 16 -131 17 -1060 18 -556 0 -1019 -1 -1030 -3z
m2027 -258 c14 -7 36 -27 47 -43 l21 -29 0 -2083 c0 -2050 0 -2085 -20 -2116
-39 -64 23 -61 -1075 -59 -1089 1 -1024 -2 -1059 58 -16 26 -17 179 -17 2113
l0 2086 21 34 c11 18 33 38 48 43 16 5 438 9 1017 10 827 0 994 -2 1017 -14z"/>
<path d="M1723 4470 c-57 -35 -73 -93 -42 -156 22 -46 61 -68 114 -67 66 2
115 56 115 127 0 31 -7 45 -39 77 -32 32 -46 39 -77 39 -22 0 -53 -9 -71 -20z"/>
<path d="M2206 4471 c-74 -49 -76 -151 -3 -205 26 -20 41 -21 299 -21 242 0
276 1 308 17 83 42 87 159 7 208 -30 18 -52 20 -307 20 -255 0 -277 -2 -304
-19z"/>
<path d="M2424 1341 c-96 -25 -195 -106 -239 -196 -124 -256 79 -548 363 -522
250 24 398 290 291 524 -27 60 -110 140 -175 170 -59 27 -181 39 -240 24z
m179 -283 c25 -29 28 -39 24 -83 -4 -41 -10 -54 -38 -77 -62 -52 -154 -30
-183 43 -19 47 -12 87 22 122 52 54 126 52 175 -5z"/>
</g>
</svg>
